# xmcd CD database file
#
# Track frame offsets:
#	150
#	19899
#	40777
#	58512
#	75669
#	94316
#	109771
#	130708
#	152176
#	167268
#	182830
#	200595
#
# Disc length: 2849 seconds
#
# Revision: 0
# Processed by: cddbd v1.5.2PL0 Copyright (c) Steve Scherf et al.
# Submitted via: CDex 1.70beta2
#
DISCID=950b1f0c
DTITLE=Susan Tedeschi - Back To The River
DYEAR=2008
DGENRE=Blues
TTITLE0=Talking About
TTITLE1=700 Houses
TTITLE2=Back To The River
TTITLE3=Love Will
TTITLE4=Butterfly
TTITLE5=People
TTITLE6=Learning The Hard  Way
TTITLE7=Revolutionize Your Soul
TTITLE8=True
TTITLE9=There's A Break In The Road
TTITLE10=Can't Sleep At Night
TTITLE11=99 Pounds (Borders Exclusive Track)
EXTD=YEAR: 2008
EXTT0=
EXTT1=
EXTT2=
EXTT3=
EXTT4=
EXTT5=
EXTT6=
EXTT7=
EXTT8=
EXTT9=
EXTT10=
EXTT11=
PLAYORDER=
